# xmcd CD database file
#
# Track frame offsets:
#	150
#	26618
#	36384
#	55416
#	71243
#	81072
#	90907
#	105205
#	142399
#	158654
#	169045
#	177825
#	188353
#	212282
#	225618
#
# Disc length: 3198 seconds
#
# Revision: 2
# Processed by: cddbd v1.5.2PL0 Copyright (c) Steve Scherf et al.
# Submitted via: CDex 1.70beta2
#
DISCID=ba0c7c0f
DTITLE=Various Artist - Jazz and Voices
DYEAR=1999
DGENRE=Jazz
TTITLE0=Ella Fitzgerald and Louis Armstrong - Cheek To Cheek
TTITLE1=Sarah Vaughn - Careless
TTITLE2=The Padadena Roof Orchestra - Stardust
TTITLE3=Ray Charles - Cry
TTITLE4=Tony Bennett - Blue Moon
TTITLE5=Charlie Barnett - Caravan
TTITLE6=Duncan Galloway - As Time Goes By
TTITLE7=Cannonball Adderly - No Greater Love
TTITLE8=Nina Simone - My Baby Just Cares For Me
TTITLE9=Count Basie - Five In The Morning Blues
TTITLE10=Frank Sinatra - I've Got You Under My Skin
TTITLE11=Glenn Miller - That Old Feeling
TTITLE12=James Langton and John Arthy - Summertime
TTITLE13=Duke Ellington - Take The ''A'' Train
TTITLE14=Nat King Cole - I'm In The Mood For Love
EXTD=YEAR: 1999
EXTT0=
EXTT1=
EXTT2=
EXTT3=
EXTT4=
EXTT5=
EXTT6=
EXTT7=
EXTT8=
EXTT9=
EXTT10=
EXTT11=
EXTT12=
EXTT13=
EXTT14=
PLAYORDER=
